M48
; DRILL file {KiCad 8.0.6} date 2024-11-18T20:07:04+1100
; FORMAT={-:-/ absolute / inch / decimal}
; #@! TF.CreationDate,2024-11-18T20:07:04+11:00
; #@! TF.GenerationSoftware,Kicad,Pcbnew,8.0.6
; #@! TF.FileFunction,Plated,1,2,PTH
FMAT,2
INCH
; #@! TA.AperFunction,Plated,PTH,ViaDrill
T1C0.0157
%
G90
G05
T1
X3.7047Y-3.5236
X3.8189Y-3.122
X3.8424Y-3.4843
X3.8425Y-3.1723
X3.8922Y-3.1152
X3.8979Y-3.1869
X3.9164Y-3.1522
X3.9331Y-3.3149
X3.9423Y-3.4843
X3.9678Y-3.2874
X3.9963Y-3.3149
X4.0143Y-3.1086
X4.0422Y-3.4843
X4.063Y-3.1338
X4.0787Y-3.0276
X4.0827Y-3.2283
X4.1006Y-3.0603
X4.137Y-3.0751
X4.1421Y-3.4843
X4.1762Y-3.0789
X4.2139Y-3.0935
X4.242Y-3.4843
X4.2441Y-3.3149
X4.2892Y-3.2972
X4.3364Y-3.1869
X4.342Y-3.4843
X4.3463Y-3.2795
X4.3924Y-3.2618
X4.4419Y-3.4843
X4.4764Y-3.2263
X4.5418Y-3.4843
X4.5591Y-3.4331
X4.6102Y-3.125
X4.6417Y-3.4843
X4.6457Y-3.3858
X4.6545Y-3.1614
X4.7416Y-3.4843
X4.7874Y-3.383
X4.811Y-3.4331
X4.8386Y-3.0276
X4.8415Y-3.4843
X4.8777Y-3.0364
X4.9415Y-3.4843
X4.9727Y-3.2086
X5.0298Y-3.1993
X5.0414Y-3.4843
X5.0627Y-3.1515
X5.1068Y-3.1692
X5.1147Y-3.3207
X5.1413Y-3.4843
X5.1524Y-3.1845
X5.1653Y-3.1474
X5.1773Y-3.2205
X5.2058Y-3.1522
X5.2412Y-3.4843
X5.2638Y-3.0768
X5.2992Y-3.0945
X5.3071Y-3.3819
X5.3411Y-3.4843
X5.3543Y-3.2008
X5.3898Y-3.3149
X5.3912Y-3.1339
X5.4291Y-3.2971
X5.4411Y-3.4843
X5.4412Y-3.1181
X5.4504Y-3.1677
X5.4912Y-3.1102
X5.5035Y-3.2785
X5.541Y-3.4843
X5.5412Y-3.1102
X5.5429Y-3.2608
X5.5906Y-3.1102
X5.6299Y-3.0315
X5.6409Y-3.4843
X5.6772Y-3.4331
X5.7205Y-3.3819
X5.7408Y-3.4843
X5.8407Y-3.3542
X5.8407Y-3.4843
X5.8622Y-3.1269
X5.9407Y-3.4843
X5.9587Y-3.4429
X6.0315Y-3.3937
X6.0406Y-3.4843
X6.1378Y-3.1654
X6.1405Y-3.4843
X6.1417Y-3.433
X6.1861Y-3.3149
X6.2404Y-3.4843
X6.2727Y-3.24
X6.3386Y-3.1269
X6.3403Y-3.4843
X6.3701Y-3.2126
X6.4016Y-3.3513
X6.4331Y-3.1339
X6.4402Y-3.4843
X6.5394Y-3.1132
X6.5394Y-3.3228
X6.5402Y-3.4843
X6.563Y-3.1732
X6.59Y-3.1102
X6.5906Y-3.2873
X6.64Y-3.1102
X6.6401Y-3.4843
X6.6417Y-3.2598
X6.689Y-3.1102
X6.689Y-3.2283
X6.74Y-3.4843
X6.7402Y-3.1102
X6.748Y-3.2874
M30
