%TF.GenerationSoftware,KiCad,Pcbnew,8.0.6*%
%TF.CreationDate,2024-11-18T20:07:02+11:00*%
%TF.ProjectId,simms,73696d6d-732e-46b6-9963-61645f706362,rev?*%
%TF.SameCoordinates,Original*%
%TF.FileFunction,Paste,Top*%
%TF.FilePolarity,Positive*%
%FSLAX46Y46*%
G04 Gerber Fmt 4.6, Leading zero omitted, Abs format (unit mm)*
G04 Created by KiCad (PCBNEW 8.0.6) date 2024-11-18 20:07:02*
%MOMM*%
%LPD*%
G01*
G04 APERTURE LIST*
G04 Aperture macros list*
%AMRoundRect*
0 Rectangle with rounded corners*
0 $1 Rounding radius*
0 $2 $3 $4 $5 $6 $7 $8 $9 X,Y pos of 4 corners*
0 Add a 4 corners polygon primitive as box body*
4,1,4,$2,$3,$4,$5,$6,$7,$8,$9,$2,$3,0*
0 Add four circle primitives for the rounded corners*
1,1,$1+$1,$2,$3*
1,1,$1+$1,$4,$5*
1,1,$1+$1,$6,$7*
1,1,$1+$1,$8,$9*
0 Add four rect primitives between the rounded corners*
20,1,$1+$1,$2,$3,$4,$5,0*
20,1,$1+$1,$4,$5,$6,$7,0*
20,1,$1+$1,$6,$7,$8,$9,0*
20,1,$1+$1,$8,$9,$2,$3,0*%
G04 Aperture macros list end*
%ADD10R,1.750000X2.750000*%
%ADD11RoundRect,0.150000X0.150000X-0.700000X0.150000X0.700000X-0.150000X0.700000X-0.150000X-0.700000X0*%
%ADD12RoundRect,0.150000X-0.150000X0.700000X-0.150000X-0.700000X0.150000X-0.700000X0.150000X0.700000X0*%
%ADD13RoundRect,0.250000X0.650000X-0.325000X0.650000X0.325000X-0.650000X0.325000X-0.650000X-0.325000X0*%
G04 APERTURE END LIST*
D10*
%TO.C,J1*%
X97596000Y-89800000D03*
X100133931Y-89800000D03*
X102671862Y-89800000D03*
X105209793Y-89800000D03*
X107747724Y-89800000D03*
X110285655Y-89800000D03*
X112823586Y-89800000D03*
X115361517Y-89800000D03*
X117899448Y-89800000D03*
X120437379Y-89800000D03*
X122975310Y-89800000D03*
X125513241Y-89800000D03*
X128051172Y-89800000D03*
X130589103Y-89800000D03*
X133127034Y-89800000D03*
X135664965Y-89800000D03*
X138202896Y-89800000D03*
X140740827Y-89800000D03*
X143278758Y-89800000D03*
X145816689Y-89800000D03*
X148354620Y-89800000D03*
X150892551Y-89800000D03*
X153430482Y-89800000D03*
X155968413Y-89800000D03*
X158506344Y-89800000D03*
X161044275Y-89800000D03*
X163582206Y-89800000D03*
X166120137Y-89800000D03*
X168658068Y-89800000D03*
X171196000Y-89800000D03*
%TD*%
D11*
%TO.C,U2*%
X126776000Y-85688000D03*
X128046000Y-85688000D03*
X129316000Y-85688000D03*
X130586000Y-85688000D03*
X131856000Y-85688000D03*
X136936000Y-85688000D03*
X138206000Y-85688000D03*
X139476000Y-85688000D03*
X140746000Y-85688000D03*
X142016000Y-85688000D03*
D12*
X142016000Y-77538000D03*
X140746000Y-77538000D03*
X139476000Y-77538000D03*
X138206000Y-77538000D03*
X136936000Y-77538000D03*
D11*
X131856000Y-77538000D03*
X130586000Y-77538000D03*
X129316000Y-77538000D03*
X128046000Y-77538000D03*
X126776000Y-77538000D03*
%TD*%
D13*
%TO.C,C3*%
X153200000Y-86350000D03*
X153200000Y-83400000D03*
%TD*%
%TO.C,C2*%
X124000000Y-86475000D03*
X124000000Y-83525000D03*
%TD*%
%TO.C,C1*%
X94900000Y-86450000D03*
X94900000Y-83500000D03*
%TD*%
D11*
%TO.C,U1*%
X97596000Y-85688000D03*
X98866000Y-85688000D03*
X100136000Y-85688000D03*
X101406000Y-85688000D03*
X102676000Y-85688000D03*
X107756000Y-85688000D03*
X109026000Y-85688000D03*
X110296000Y-85688000D03*
X111566000Y-85688000D03*
X112836000Y-85688000D03*
D12*
X112836000Y-77538000D03*
X111566000Y-77538000D03*
X110296000Y-77538000D03*
X109026000Y-77538000D03*
X107756000Y-77538000D03*
D11*
X102676000Y-77538000D03*
X101406000Y-77538000D03*
X100136000Y-77538000D03*
X98866000Y-77538000D03*
X97596000Y-77538000D03*
%TD*%
%TO.C,U3*%
X155956000Y-85688000D03*
X157226000Y-85688000D03*
X158496000Y-85688000D03*
X159766000Y-85688000D03*
X161036000Y-85688000D03*
X166116000Y-85688000D03*
X167386000Y-85688000D03*
X168656000Y-85688000D03*
X169926000Y-85688000D03*
X171196000Y-85688000D03*
D12*
X171196000Y-77538000D03*
X169926000Y-77538000D03*
X168656000Y-77538000D03*
X167386000Y-77538000D03*
X166116000Y-77538000D03*
D11*
X161036000Y-77538000D03*
X159766000Y-77538000D03*
X158496000Y-77538000D03*
X157226000Y-77538000D03*
X155956000Y-77538000D03*
%TD*%
M02*
